<!--?xml version="1.0" standalone="no"?-->
              <svg id="sw-js-blob-svg" viewBox="0 0 100 100" xmlns="http://www.w3.org/2000/svg" version="1.1">
             
                <path fill="#000" d="M21.1,-23C29,-18.5,38.2,-13.4,39.6,-6.8C41,-0.2,34.5,8,29.3,16.7C24,25.3,19.9,34.4,13.5,36.6C7,38.8,-1.8,34,-10.9,30.5C-19.9,26.9,-29.1,24.5,-32.4,18.7C-35.6,13,-32.9,3.8,-31.8,-6.2C-30.8,-16.2,-31.3,-27.1,-26.3,-32.1C-21.3,-37.1,-10.6,-36.1,-2,-33.7C6.6,-31.3,13.2,-27.5,21.1,-23Z" width="100%" height="100%" transform="translate(50 50)" stroke-width="0" style="transition: all 0.3s ease 0s;"></path>
              </svg>