<svg width="100" height="60" viewBox="0 0 671 532" fill="none" xmlns="http://www.w3.org/2000/svg">
<path d="M97.256 333C93.44 333 90.472 332.011 88.352 330.032C86.3733 327.912 85.384 324.944 85.384 321.128V195.412C85.384 191.596 86.3733 188.699 88.352 186.72C90.472 184.6 93.44 183.54 97.256 183.54H174.636C177.604 183.54 179.865 184.317 181.42 185.872C182.975 187.285 183.752 189.405 183.752 192.232C183.752 195.2 182.975 197.461 181.42 199.016C179.865 200.571 177.604 201.348 174.636 201.348H106.584V248.2H169.972C173.081 248.2 175.343 248.977 176.756 250.532C178.311 252.087 179.088 254.277 179.088 257.104C179.088 260.072 178.311 262.333 176.756 263.888C175.343 265.301 173.081 266.008 169.972 266.008H106.584V315.192H174.636C177.604 315.192 179.865 315.969 181.42 317.524C182.975 319.079 183.752 321.269 183.752 324.096C183.752 327.064 182.975 329.325 181.42 330.88C179.865 332.293 177.604 333 174.636 333H97.256Z" fill="black"/>
<path d="M233.304 334.908C227.085 334.908 220.655 334.201 214.012 332.788C207.511 331.375 201.504 328.972 195.992 325.58C194.155 324.308 192.883 322.895 192.176 321.34C191.469 319.785 191.187 318.231 191.328 316.676C191.611 314.98 192.247 313.567 193.236 312.436C194.367 311.164 195.709 310.387 197.264 310.104C198.96 309.821 200.727 310.175 202.564 311.164C208.076 314.273 213.376 316.464 218.464 317.736C223.552 318.867 228.569 319.432 233.516 319.432C241.007 319.432 246.66 318.089 250.476 315.404C254.292 312.719 256.2 309.115 256.2 304.592C256.2 300.917 254.928 298.091 252.384 296.112C249.84 293.992 246.024 292.367 240.936 291.236L220.796 287.208C212.033 285.371 205.391 282.12 200.868 277.456C196.345 272.792 194.084 266.856 194.084 259.648C194.084 253.147 195.851 247.493 199.384 242.688C202.917 237.883 207.864 234.208 214.224 231.664C220.584 228.979 227.933 227.636 236.272 227.636C242.491 227.636 248.356 228.413 253.868 229.968C259.38 231.523 264.468 233.855 269.132 236.964C270.969 237.953 272.171 239.296 272.736 240.992C273.301 242.547 273.372 244.101 272.948 245.656C272.665 247.211 271.959 248.624 270.828 249.896C269.697 251.027 268.284 251.733 266.588 252.016C265.033 252.157 263.267 251.733 261.288 250.744C257.048 248.059 252.808 246.151 248.568 245.02C244.469 243.889 240.371 243.324 236.272 243.324C228.781 243.324 223.128 244.737 219.312 247.564C215.637 250.249 213.8 253.924 213.8 258.588C213.8 262.121 214.931 265.019 217.192 267.28C219.453 269.541 222.987 271.167 227.792 272.156L247.932 276.184C257.119 278.021 264.044 281.131 268.708 285.512C273.513 289.893 275.916 295.829 275.916 303.32C275.916 313.072 272.029 320.775 264.256 326.428C256.483 332.081 246.165 334.908 233.304 334.908Z" fill="black"/>
<path d="M399.804 334.908C389.769 334.908 380.936 333.636 373.304 331.092C365.672 328.407 359.241 324.449 354.012 319.22C348.924 313.991 345.037 307.489 342.352 299.716C339.667 291.943 338.324 282.968 338.324 272.792V193.08C338.324 189.405 339.243 186.649 341.08 184.812C343.059 182.975 345.815 182.056 349.348 182.056C352.881 182.056 355.567 182.975 357.404 184.812C359.383 186.649 360.372 189.405 360.372 193.08V272.368C360.372 286.925 363.693 297.808 370.336 305.016C377.12 312.224 386.943 315.828 399.804 315.828C412.807 315.828 422.629 312.224 429.272 305.016C435.915 297.808 439.236 286.925 439.236 272.368V193.08C439.236 189.405 440.155 186.649 441.992 184.812C443.971 182.975 446.656 182.056 450.048 182.056C453.581 182.056 456.267 182.975 458.104 184.812C459.941 186.649 460.86 189.405 460.86 193.08V272.792C460.86 286.36 458.528 297.808 453.864 307.136C449.341 316.323 442.557 323.248 433.512 327.912C424.467 332.576 413.231 334.908 399.804 334.908Z" fill="black"/>
<path d="M472.656 334.484C469.829 334.484 467.497 333.777 465.66 332.364C463.823 330.809 462.763 328.901 462.48 326.64C462.197 324.237 462.975 321.835 464.812 319.432L514.844 252.228V261.132L467.568 197.532C465.731 194.988 464.883 192.515 465.024 190.112C465.307 187.709 466.367 185.801 468.204 184.388C470.041 182.833 472.303 182.056 474.988 182.056C477.249 182.056 479.228 182.621 480.924 183.752C482.761 184.741 484.599 186.508 486.436 189.052L527.564 245.444H520.78L561.484 189.052C563.321 186.508 565.088 184.741 566.784 183.752C568.621 182.621 570.741 182.056 573.144 182.056C575.971 182.056 578.303 182.833 580.14 184.388C581.977 185.801 582.967 187.709 583.108 190.112C583.391 192.373 582.543 194.847 580.564 197.532L533.288 261.132V252.228L583.108 319.432C584.945 321.835 585.723 324.237 585.44 326.64C585.299 328.901 584.309 330.809 582.472 332.364C580.635 333.777 578.232 334.484 575.264 334.484C573.144 334.484 571.165 333.919 569.328 332.788C567.491 331.657 565.583 329.891 563.604 327.488L519.932 267.704H527.988L484.528 327.488C482.691 329.891 480.783 331.657 478.804 332.788C476.967 333.919 474.917 334.484 472.656 334.484Z" fill="black"/>
</svg>
