<svg width="571" height="432" viewBox="0 0 671 532" fill="none" xmlns="http://www.w3.org/2000/svg">
<path d="M167.252 308.192H105.2V271.008H162.588C166.426 271.008 170.586 270.16 173.615 267.131C176.644 264.101 177.704 260.089 177.704 256.104C177.704 252.207 176.617 248.353 173.713 245.388C170.713 242.169 166.523 241.2 162.588 241.2H105.2V206.348H167.252C171.237 206.348 175.249 205.288 178.279 202.259C181.308 199.229 182.368 195.217 182.368 191.232C182.368 187.372 181.293 183.428 178.178 180.53C175.16 177.576 171.193 176.54 167.252 176.54H89.872C84.9217 176.54 80.2571 177.946 76.7254 181.477C73.2612 184.942 72 189.599 72 194.412V320.128C72 324.97 73.2719 329.58 76.5816 333.126L76.6993 333.252L76.7228 333.277L76.7481 333.301L76.8741 333.418C80.4202 336.728 85.0305 338 89.872 338H167.252C171.097 338 175.029 337.086 178.072 334.32L178.16 334.24L178.178 334.224L178.195 334.207L178.279 334.123C181.308 331.093 182.368 327.081 182.368 323.096C182.368 319.155 181.256 315.259 178.279 312.281C175.249 309.252 171.237 308.192 167.252 308.192ZM98.2 314.192V315.192H99.2H167.252C170.05 315.192 172.02 315.922 173.329 317.231C174.647 318.549 175.368 320.455 175.368 323.096C175.368 325.882 174.644 327.847 173.346 329.156C172.039 330.334 170.061 331 167.252 331H89.872C86.2434 331 83.5568 330.066 81.6755 328.324C79.9337 326.443 79 323.757 79 320.128V194.412C79 190.762 79.9439 188.158 81.6751 186.427C83.5599 184.542 86.2453 183.54 89.872 183.54H167.252C170.05 183.54 172.02 184.27 173.329 185.579L173.346 185.596L173.363 185.612C174.645 186.777 175.368 188.585 175.368 191.232C175.368 194.03 174.638 196 173.329 197.309C172.02 198.618 170.05 199.348 167.252 199.348H99.2H98.2V200.348V247.2V248.2H99.2H162.588C165.552 248.2 167.484 248.942 168.632 250.205L168.648 250.222L168.665 250.239C169.983 251.557 170.704 253.463 170.704 256.104C170.704 258.902 169.974 260.872 168.665 262.181C167.521 263.325 165.576 264.008 162.588 264.008H99.2H98.2V265.008V314.192Z" fill="black" stroke="black" stroke-width="2"/>
<mask id="path-2-outside-1_0_1" maskUnits="userSpaceOnUse" x="184" y="220" width="99" height="122" fill="black">
<rect fill="white" x="184" y="220" width="99" height="122"/>
<path fill-rule="evenodd" clip-rule="evenodd" d="M212.668 337.04L212.657 337.038C205.62 335.508 199.085 332.898 193.079 329.202L192.964 329.132L192.853 329.055C190.497 327.424 188.51 325.367 187.332 322.773C186.301 320.505 185.829 318.085 186.056 315.587L186.073 315.402L186.103 315.218C186.516 312.741 187.495 310.434 189.181 308.507L189.193 308.493L189.206 308.478C191.018 306.44 193.336 305.047 196.077 304.549L196.113 304.542L196.149 304.536C199.157 304.035 202.043 304.726 204.642 306.126L204.685 306.149L204.728 306.173C209.903 309.092 214.765 311.087 219.321 312.233C224.049 313.28 228.681 313.796 233.223 313.796C240.256 313.796 244.703 312.511 247.306 310.679C249.841 308.895 250.907 306.791 250.907 303.956C250.907 301.579 250.166 300.313 249.022 299.423L248.955 299.371L248.89 299.317C247.218 297.923 244.292 296.538 239.61 295.492L219.5 291.47L219.477 291.466C210.096 289.499 202.42 285.905 196.986 280.301C191.456 274.598 188.791 267.364 188.791 259.012C188.791 251.546 190.841 244.832 195.063 239.09C199.219 233.438 204.956 229.241 212.03 226.403C219.109 223.423 227.127 222 235.979 222C242.618 222 248.943 222.83 254.933 224.52C260.866 226.193 266.373 228.702 271.432 232.047C274.066 233.523 276.15 235.722 277.165 238.709C278.029 241.121 278.17 243.636 277.535 246.126C277.051 248.566 275.916 250.732 274.272 252.582L274.175 252.692L274.071 252.796C272.147 254.72 269.76 255.872 267.117 256.312L266.934 256.343L266.748 256.359C263.958 256.613 261.239 255.82 258.759 254.58L258.533 254.467L258.32 254.332C254.449 251.88 250.672 250.198 246.987 249.215L246.966 249.21L246.946 249.204C243.264 248.188 239.612 247.688 235.979 247.688C228.985 247.688 224.581 249.031 221.996 250.946L221.983 250.955L221.969 250.965C219.62 252.682 218.507 254.837 218.507 257.952C218.507 260.312 219.214 261.887 220.435 263.108C221.726 264.4 224.18 265.73 228.495 266.62C228.499 266.621 228.503 266.622 228.508 266.623L248.62 270.645C258.307 272.582 266.222 275.969 271.812 281.206C277.799 286.68 280.623 294.035 280.623 302.684C280.623 314.008 275.994 323.225 266.904 329.836C258.029 336.29 246.576 339.272 233.011 339.272C226.413 339.272 219.633 338.522 212.679 337.043L212.668 337.04ZM227.499 271.52C222.694 270.531 219.161 268.905 216.899 266.644C214.638 264.383 213.507 261.485 213.507 257.952C213.507 253.288 215.345 249.613 219.019 246.928C222.835 244.101 228.489 242.688 235.979 242.688C240.078 242.688 244.177 243.253 248.275 244.384C252.515 245.515 256.755 247.423 260.995 250.108C262.974 251.097 264.741 251.521 266.295 251.38C267.991 251.097 269.405 250.391 270.535 249.26C271.666 247.988 272.373 246.575 272.655 245.02C273.079 243.465 273.009 241.911 272.443 240.356C271.878 238.66 270.677 237.317 268.839 236.328C264.175 233.219 259.087 230.887 253.575 229.332C248.063 227.777 242.198 227 235.979 227C227.641 227 220.291 228.343 213.931 231.028C207.571 233.572 202.625 237.247 199.091 242.052C195.558 246.857 193.791 252.511 193.791 259.012C193.791 266.22 196.053 272.156 200.575 276.82C205.098 281.484 211.741 284.735 220.503 286.572L240.643 290.6C245.731 291.731 249.547 293.356 252.091 295.476C254.635 297.455 255.907 300.281 255.907 303.956C255.907 308.479 253.999 312.083 250.183 314.768C246.367 317.453 240.714 318.796 233.223 318.796C228.277 318.796 223.259 318.231 218.171 317.1C213.083 315.828 207.783 313.637 202.271 310.528C200.434 309.539 198.667 309.185 196.971 309.468C195.417 309.751 194.074 310.528 192.943 311.8C191.954 312.931 191.318 314.344 191.035 316.04C190.894 317.595 191.177 319.149 191.883 320.704C192.59 322.259 193.862 323.672 195.699 324.944C201.211 328.336 207.218 330.739 213.719 332.152C220.362 333.565 226.793 334.272 233.011 334.272C245.873 334.272 256.19 331.445 263.963 325.792C271.737 320.139 275.623 312.436 275.623 302.684C275.623 295.193 273.221 289.257 268.415 284.876C263.751 280.495 256.826 277.385 247.639 275.548L227.499 271.52Z"/>
</mask>
<path fill-rule="evenodd" clip-rule="evenodd" d="M212.668 337.04L212.657 337.038C205.62 335.508 199.085 332.898 193.079 329.202L192.964 329.132L192.853 329.055C190.497 327.424 188.51 325.367 187.332 322.773C186.301 320.505 185.829 318.085 186.056 315.587L186.073 315.402L186.103 315.218C186.516 312.741 187.495 310.434 189.181 308.507L189.193 308.493L189.206 308.478C191.018 306.44 193.336 305.047 196.077 304.549L196.113 304.542L196.149 304.536C199.157 304.035 202.043 304.726 204.642 306.126L204.685 306.149L204.728 306.173C209.903 309.092 214.765 311.087 219.321 312.233C224.049 313.28 228.681 313.796 233.223 313.796C240.256 313.796 244.703 312.511 247.306 310.679C249.841 308.895 250.907 306.791 250.907 303.956C250.907 301.579 250.166 300.313 249.022 299.423L248.955 299.371L248.89 299.317C247.218 297.923 244.292 296.538 239.61 295.492L219.5 291.47L219.477 291.466C210.096 289.499 202.42 285.905 196.986 280.301C191.456 274.598 188.791 267.364 188.791 259.012C188.791 251.546 190.841 244.832 195.063 239.09C199.219 233.438 204.956 229.241 212.03 226.403C219.109 223.423 227.127 222 235.979 222C242.618 222 248.943 222.83 254.933 224.52C260.866 226.193 266.373 228.702 271.432 232.047C274.066 233.523 276.15 235.722 277.165 238.709C278.029 241.121 278.17 243.636 277.535 246.126C277.051 248.566 275.916 250.732 274.272 252.582L274.175 252.692L274.071 252.796C272.147 254.72 269.76 255.872 267.117 256.312L266.934 256.343L266.748 256.359C263.958 256.613 261.239 255.82 258.759 254.58L258.533 254.467L258.32 254.332C254.449 251.88 250.672 250.198 246.987 249.215L246.966 249.21L246.946 249.204C243.264 248.188 239.612 247.688 235.979 247.688C228.985 247.688 224.581 249.031 221.996 250.946L221.983 250.955L221.969 250.965C219.62 252.682 218.507 254.837 218.507 257.952C218.507 260.312 219.214 261.887 220.435 263.108C221.726 264.4 224.18 265.73 228.495 266.62C228.499 266.621 228.503 266.622 228.508 266.623L248.62 270.645C258.307 272.582 266.222 275.969 271.812 281.206C277.799 286.68 280.623 294.035 280.623 302.684C280.623 314.008 275.994 323.225 266.904 329.836C258.029 336.29 246.576 339.272 233.011 339.272C226.413 339.272 219.633 338.522 212.679 337.043L212.668 337.04ZM227.499 271.52C222.694 270.531 219.161 268.905 216.899 266.644C214.638 264.383 213.507 261.485 213.507 257.952C213.507 253.288 215.345 249.613 219.019 246.928C222.835 244.101 228.489 242.688 235.979 242.688C240.078 242.688 244.177 243.253 248.275 244.384C252.515 245.515 256.755 247.423 260.995 250.108C262.974 251.097 264.741 251.521 266.295 251.38C267.991 251.097 269.405 250.391 270.535 249.26C271.666 247.988 272.373 246.575 272.655 245.02C273.079 243.465 273.009 241.911 272.443 240.356C271.878 238.66 270.677 237.317 268.839 236.328C264.175 233.219 259.087 230.887 253.575 229.332C248.063 227.777 242.198 227 235.979 227C227.641 227 220.291 228.343 213.931 231.028C207.571 233.572 202.625 237.247 199.091 242.052C195.558 246.857 193.791 252.511 193.791 259.012C193.791 266.22 196.053 272.156 200.575 276.82C205.098 281.484 211.741 284.735 220.503 286.572L240.643 290.6C245.731 291.731 249.547 293.356 252.091 295.476C254.635 297.455 255.907 300.281 255.907 303.956C255.907 308.479 253.999 312.083 250.183 314.768C246.367 317.453 240.714 318.796 233.223 318.796C228.277 318.796 223.259 318.231 218.171 317.1C213.083 315.828 207.783 313.637 202.271 310.528C200.434 309.539 198.667 309.185 196.971 309.468C195.417 309.751 194.074 310.528 192.943 311.8C191.954 312.931 191.318 314.344 191.035 316.04C190.894 317.595 191.177 319.149 191.883 320.704C192.59 322.259 193.862 323.672 195.699 324.944C201.211 328.336 207.218 330.739 213.719 332.152C220.362 333.565 226.793 334.272 233.011 334.272C245.873 334.272 256.19 331.445 263.963 325.792C271.737 320.139 275.623 312.436 275.623 302.684C275.623 295.193 273.221 289.257 268.415 284.876C263.751 280.495 256.826 277.385 247.639 275.548L227.499 271.52Z" fill="black"/>
<path fill-rule="evenodd" clip-rule="evenodd" d="M212.668 337.04L212.657 337.038C205.62 335.508 199.085 332.898 193.079 329.202L192.964 329.132L192.853 329.055C190.497 327.424 188.51 325.367 187.332 322.773C186.301 320.505 185.829 318.085 186.056 315.587L186.073 315.402L186.103 315.218C186.516 312.741 187.495 310.434 189.181 308.507L189.193 308.493L189.206 308.478C191.018 306.44 193.336 305.047 196.077 304.549L196.113 304.542L196.149 304.536C199.157 304.035 202.043 304.726 204.642 306.126L204.685 306.149L204.728 306.173C209.903 309.092 214.765 311.087 219.321 312.233C224.049 313.28 228.681 313.796 233.223 313.796C240.256 313.796 244.703 312.511 247.306 310.679C249.841 308.895 250.907 306.791 250.907 303.956C250.907 301.579 250.166 300.313 249.022 299.423L248.955 299.371L248.89 299.317C247.218 297.923 244.292 296.538 239.61 295.492L219.5 291.47L219.477 291.466C210.096 289.499 202.42 285.905 196.986 280.301C191.456 274.598 188.791 267.364 188.791 259.012C188.791 251.546 190.841 244.832 195.063 239.09C199.219 233.438 204.956 229.241 212.03 226.403C219.109 223.423 227.127 222 235.979 222C242.618 222 248.943 222.83 254.933 224.52C260.866 226.193 266.373 228.702 271.432 232.047C274.066 233.523 276.15 235.722 277.165 238.709C278.029 241.121 278.17 243.636 277.535 246.126C277.051 248.566 275.916 250.732 274.272 252.582L274.175 252.692L274.071 252.796C272.147 254.72 269.76 255.872 267.117 256.312L266.934 256.343L266.748 256.359C263.958 256.613 261.239 255.82 258.759 254.58L258.533 254.467L258.32 254.332C254.449 251.88 250.672 250.198 246.987 249.215L246.966 249.21L246.946 249.204C243.264 248.188 239.612 247.688 235.979 247.688C228.985 247.688 224.581 249.031 221.996 250.946L221.983 250.955L221.969 250.965C219.62 252.682 218.507 254.837 218.507 257.952C218.507 260.312 219.214 261.887 220.435 263.108C221.726 264.4 224.18 265.73 228.495 266.62C228.499 266.621 228.503 266.622 228.508 266.623L248.62 270.645C258.307 272.582 266.222 275.969 271.812 281.206C277.799 286.68 280.623 294.035 280.623 302.684C280.623 314.008 275.994 323.225 266.904 329.836C258.029 336.29 246.576 339.272 233.011 339.272C226.413 339.272 219.633 338.522 212.679 337.043L212.668 337.04ZM227.499 271.52C222.694 270.531 219.161 268.905 216.899 266.644C214.638 264.383 213.507 261.485 213.507 257.952C213.507 253.288 215.345 249.613 219.019 246.928C222.835 244.101 228.489 242.688 235.979 242.688C240.078 242.688 244.177 243.253 248.275 244.384C252.515 245.515 256.755 247.423 260.995 250.108C262.974 251.097 264.741 251.521 266.295 251.38C267.991 251.097 269.405 250.391 270.535 249.26C271.666 247.988 272.373 246.575 272.655 245.02C273.079 243.465 273.009 241.911 272.443 240.356C271.878 238.66 270.677 237.317 268.839 236.328C264.175 233.219 259.087 230.887 253.575 229.332C248.063 227.777 242.198 227 235.979 227C227.641 227 220.291 228.343 213.931 231.028C207.571 233.572 202.625 237.247 199.091 242.052C195.558 246.857 193.791 252.511 193.791 259.012C193.791 266.22 196.053 272.156 200.575 276.82C205.098 281.484 211.741 284.735 220.503 286.572L240.643 290.6C245.731 291.731 249.547 293.356 252.091 295.476C254.635 297.455 255.907 300.281 255.907 303.956C255.907 308.479 253.999 312.083 250.183 314.768C246.367 317.453 240.714 318.796 233.223 318.796C228.277 318.796 223.259 318.231 218.171 317.1C213.083 315.828 207.783 313.637 202.271 310.528C200.434 309.539 198.667 309.185 196.971 309.468C195.417 309.751 194.074 310.528 192.943 311.8C191.954 312.931 191.318 314.344 191.035 316.04C190.894 317.595 191.177 319.149 191.883 320.704C192.59 322.259 193.862 323.672 195.699 324.944C201.211 328.336 207.218 330.739 213.719 332.152C220.362 333.565 226.793 334.272 233.011 334.272C245.873 334.272 256.19 331.445 263.963 325.792C271.737 320.139 275.623 312.436 275.623 302.684C275.623 295.193 273.221 289.257 268.415 284.876C263.751 280.495 256.826 277.385 247.639 275.548L227.499 271.52Z" stroke="black" stroke-width="4" mask="url(#path-2-outside-1_0_1)"/>
<mask id="path-3-outside-2_0_1" maskUnits="userSpaceOnUse" x="323.94" y="174.056" width="137" height="167" fill="black">
<rect fill="white" x="323.94" y="174.056" width="137" height="167"/>
<path fill-rule="evenodd" clip-rule="evenodd" d="M364.3 334.822L364.26 334.809C355.99 331.899 348.899 327.562 343.092 321.756L343.068 321.731L343.044 321.707C337.382 315.887 333.137 308.728 330.242 300.349C327.338 291.942 325.94 282.397 325.94 271.792V192.08C325.94 187.635 327.055 183.382 330.16 180.276L330.226 180.211L330.294 180.148C333.454 177.214 337.569 176.056 341.964 176.056C346.303 176.056 350.424 177.188 353.49 180.211C356.764 183.294 357.988 187.567 357.988 192.08V271.368C357.988 285.252 361.163 294.683 366.611 300.608C372.189 306.523 380.516 309.828 392.42 309.828C404.504 309.828 412.797 306.503 418.211 300.628C423.67 294.704 426.852 285.267 426.852 271.368V192.08C426.852 187.635 427.967 183.382 431.072 180.276L431.138 180.211L431.206 180.148C434.33 177.247 438.347 176.056 442.664 176.056C447.034 176.056 451.183 177.204 454.256 180.276L450.72 183.812C448.883 181.975 446.197 181.056 442.664 181.056C439.272 181.056 436.587 181.975 434.608 183.812C432.771 185.649 431.852 188.405 431.852 192.08V271.368C431.852 285.925 428.531 296.808 421.888 304.016C415.245 311.224 405.423 314.828 392.42 314.828C379.559 314.828 369.736 311.224 362.952 304.016C356.309 296.808 352.988 285.925 352.988 271.368V192.08C352.988 188.405 351.999 185.649 350.02 183.812C348.183 181.975 345.497 181.056 341.964 181.056C338.431 181.056 335.675 181.975 333.696 183.812C331.859 185.649 330.94 188.405 330.94 192.08V271.792C330.94 281.968 332.283 290.943 334.968 298.716C337.653 306.489 341.54 312.991 346.628 318.22C351.857 323.449 358.288 327.407 365.92 330.092C373.552 332.636 382.385 333.908 392.42 333.908C405.847 333.908 417.083 331.576 426.128 326.912C435.173 322.248 441.957 315.323 446.48 306.136C451.144 296.808 453.476 285.36 453.476 271.792V192.08C453.476 188.405 452.557 185.649 450.72 183.812L454.256 180.276C457.361 183.382 458.476 187.635 458.476 192.08V271.792C458.476 285.905 456.054 298.162 450.959 308.358C445.966 318.493 438.419 326.2 428.419 331.356C418.476 336.483 406.399 338.908 392.42 338.908C381.975 338.908 372.589 337.585 364.339 334.835L364.3 334.822Z"/>
</mask>
<path fill-rule="evenodd" clip-rule="evenodd" d="M364.3 334.822L364.26 334.809C355.99 331.899 348.899 327.562 343.092 321.756L343.068 321.731L343.044 321.707C337.382 315.887 333.137 308.728 330.242 300.349C327.338 291.942 325.94 282.397 325.94 271.792V192.08C325.94 187.635 327.055 183.382 330.16 180.276L330.226 180.211L330.294 180.148C333.454 177.214 337.569 176.056 341.964 176.056C346.303 176.056 350.424 177.188 353.49 180.211C356.764 183.294 357.988 187.567 357.988 192.08V271.368C357.988 285.252 361.163 294.683 366.611 300.608C372.189 306.523 380.516 309.828 392.42 309.828C404.504 309.828 412.797 306.503 418.211 300.628C423.67 294.704 426.852 285.267 426.852 271.368V192.08C426.852 187.635 427.967 183.382 431.072 180.276L431.138 180.211L431.206 180.148C434.33 177.247 438.347 176.056 442.664 176.056C447.034 176.056 451.183 177.204 454.256 180.276L450.72 183.812C448.883 181.975 446.197 181.056 442.664 181.056C439.272 181.056 436.587 181.975 434.608 183.812C432.771 185.649 431.852 188.405 431.852 192.08V271.368C431.852 285.925 428.531 296.808 421.888 304.016C415.245 311.224 405.423 314.828 392.42 314.828C379.559 314.828 369.736 311.224 362.952 304.016C356.309 296.808 352.988 285.925 352.988 271.368V192.08C352.988 188.405 351.999 185.649 350.02 183.812C348.183 181.975 345.497 181.056 341.964 181.056C338.431 181.056 335.675 181.975 333.696 183.812C331.859 185.649 330.94 188.405 330.94 192.08V271.792C330.94 281.968 332.283 290.943 334.968 298.716C337.653 306.489 341.54 312.991 346.628 318.22C351.857 323.449 358.288 327.407 365.92 330.092C373.552 332.636 382.385 333.908 392.42 333.908C405.847 333.908 417.083 331.576 426.128 326.912C435.173 322.248 441.957 315.323 446.48 306.136C451.144 296.808 453.476 285.36 453.476 271.792V192.08C453.476 188.405 452.557 185.649 450.72 183.812L454.256 180.276C457.361 183.382 458.476 187.635 458.476 192.08V271.792C458.476 285.905 456.054 298.162 450.959 308.358C445.966 318.493 438.419 326.2 428.419 331.356C418.476 336.483 406.399 338.908 392.42 338.908C381.975 338.908 372.589 337.585 364.339 334.835L364.3 334.822Z" fill="black"/>
<path d="M364.26 334.809L363.597 336.695L363.597 336.695L364.26 334.809ZM364.3 334.822L363.636 336.709L363.651 336.714L363.667 336.72L364.3 334.822ZM343.092 321.756L341.678 323.17L341.678 323.17L343.092 321.756ZM343.068 321.731L341.635 323.126L341.644 323.136L341.654 323.145L343.068 321.731ZM343.044 321.707L344.478 320.312L344.478 320.312L343.044 321.707ZM330.242 300.349L332.132 299.696L332.132 299.696L330.242 300.349ZM330.16 180.276L328.746 178.862L328.746 178.862L330.16 180.276ZM330.226 180.211L328.865 178.745L328.838 178.771L328.812 178.797L330.226 180.211ZM330.294 180.148L328.933 178.682L328.933 178.682L330.294 180.148ZM353.49 180.211L352.085 181.635L352.102 181.651L352.119 181.667L353.49 180.211ZM366.611 300.608L365.139 301.962L365.147 301.971L365.156 301.98L366.611 300.608ZM418.211 300.628L419.682 301.983L419.682 301.983L418.211 300.628ZM431.072 180.276L432.487 181.691L432.487 181.691L431.072 180.276ZM431.138 180.211L429.777 178.745L429.75 178.771L429.724 178.797L431.138 180.211ZM431.206 180.148L432.567 181.614L432.567 181.614L431.206 180.148ZM454.256 180.276L455.67 181.691L457.084 180.276L455.67 178.862L454.256 180.276ZM434.608 183.812L433.247 182.346L433.22 182.372L433.194 182.398L434.608 183.812ZM421.888 304.016L423.359 305.371L423.359 305.371L421.888 304.016ZM362.952 304.016L361.481 305.371L361.488 305.379L361.496 305.387L362.952 304.016ZM350.02 183.812L348.606 185.226L348.632 185.252L348.659 185.278L350.02 183.812ZM333.696 183.812L332.335 182.346L332.308 182.372L332.282 182.398L333.696 183.812ZM334.968 298.716L333.078 299.369L333.078 299.369L334.968 298.716ZM346.628 318.22L345.195 319.615L345.204 319.625L345.214 319.634L346.628 318.22ZM365.92 330.092L365.256 331.979L365.272 331.984L365.288 331.989L365.92 330.092ZM426.128 326.912L427.045 328.69L427.045 328.69L426.128 326.912ZM446.48 306.136L444.691 305.242L444.686 305.253L446.48 306.136ZM454.256 180.276L455.67 178.862L454.256 177.448L452.841 178.862L454.256 180.276ZM450.959 308.358L449.17 307.464L449.165 307.474L450.959 308.358ZM428.419 331.356L429.336 333.134L429.336 333.134L428.419 331.356ZM364.339 334.835L363.706 336.733L363.706 336.733L364.339 334.835ZM363.597 336.695L363.636 336.709L364.963 332.936L364.924 332.922L363.597 336.695ZM341.678 323.17C347.716 329.207 355.071 333.695 363.597 336.695L364.924 332.922C356.909 330.102 350.082 325.917 344.507 320.341L341.678 323.17ZM341.654 323.145L341.678 323.17L344.507 320.341L344.483 320.317L341.654 323.145ZM341.611 323.101L341.635 323.126L344.502 320.337L344.478 320.312L341.611 323.101ZM328.352 301.002C331.33 309.623 335.719 317.046 341.611 323.101L344.478 320.312C339.045 314.729 334.943 307.832 332.132 299.696L328.352 301.002ZM323.94 271.792C323.94 282.568 325.36 292.342 328.352 301.002L332.132 299.696C329.316 291.542 327.94 282.225 327.94 271.792H323.94ZM323.94 192.08V271.792H327.94V192.08H323.94ZM328.746 178.862C325.132 182.477 323.94 187.329 323.94 192.08H327.94C327.94 187.94 328.978 184.287 331.575 181.691L328.746 178.862ZM328.812 178.797L328.746 178.862L331.575 181.691L331.64 181.625L328.812 178.797ZM328.933 178.682L328.865 178.745L331.587 181.677L331.655 181.614L328.933 178.682ZM341.964 174.056C337.227 174.056 332.567 175.308 328.933 178.682L331.655 181.614C334.341 179.119 337.911 178.056 341.964 178.056V174.056ZM354.894 178.787C351.335 175.277 346.632 174.056 341.964 174.056V178.056C345.974 178.056 349.514 179.099 352.085 181.635L354.894 178.787ZM359.988 192.08C359.988 187.225 358.667 182.339 354.861 178.755L352.119 181.667C354.861 184.249 355.988 187.908 355.988 192.08H359.988ZM359.988 271.368V192.08H355.988V271.368H359.988ZM368.083 299.255C363.107 293.843 359.988 284.988 359.988 271.368H355.988C355.988 285.516 359.219 295.524 365.139 301.962L368.083 299.255ZM392.42 307.828C380.894 307.828 373.162 304.64 368.066 299.236L365.156 301.98C371.215 308.406 380.137 311.828 392.42 311.828V307.828ZM416.741 299.272C411.817 304.615 404.135 307.828 392.42 307.828V311.828C404.873 311.828 413.777 308.39 419.682 301.983L416.741 299.272ZM424.852 271.368C424.852 285.002 421.727 293.862 416.741 299.272L419.682 301.983C425.614 295.546 428.852 285.531 428.852 271.368H424.852ZM424.852 192.08V271.368H428.852V192.08H424.852ZM429.658 178.862C426.044 182.477 424.852 187.329 424.852 192.08H428.852C428.852 187.94 429.89 184.287 432.487 181.691L429.658 178.862ZM429.724 178.797L429.658 178.862L432.487 181.691L432.552 181.625L429.724 178.797ZM429.845 178.682L429.777 178.745L432.499 181.677L432.567 181.614L429.845 178.682ZM442.664 174.056C437.979 174.056 433.428 175.355 429.845 178.682L432.567 181.614C435.231 179.139 438.715 178.056 442.664 178.056V174.056ZM455.67 178.862C452.102 175.295 447.365 174.056 442.664 174.056V178.056C446.702 178.056 450.265 179.114 452.841 181.691L455.67 178.862ZM452.134 185.226L455.67 181.691L452.841 178.862L449.306 182.398L452.134 185.226ZM442.664 183.056C445.863 183.056 447.962 183.883 449.306 185.226L452.134 182.398C449.803 180.067 446.532 179.056 442.664 179.056V183.056ZM435.969 185.278C437.489 183.866 439.642 183.056 442.664 183.056V179.056C438.902 179.056 435.684 180.084 433.247 182.346L435.969 185.278ZM433.852 192.08C433.852 188.714 434.692 186.556 436.022 185.226L433.194 182.398C430.849 184.742 429.852 188.097 429.852 192.08H433.852ZM433.852 271.368V192.08H429.852V271.368H433.852ZM423.359 305.371C430.475 297.65 433.852 286.189 433.852 271.368H429.852C429.852 285.662 426.587 295.966 420.417 302.661L423.359 305.371ZM392.42 316.828C405.79 316.828 416.225 313.112 423.359 305.371L420.417 302.661C414.266 309.336 405.055 312.828 392.42 312.828V316.828ZM361.496 305.387C368.762 313.107 379.181 316.828 392.42 316.828V312.828C379.936 312.828 370.71 309.341 364.408 302.645L361.496 305.387ZM350.988 271.368C350.988 286.189 354.365 297.65 361.481 305.371L364.423 302.661C358.253 295.966 354.988 285.662 354.988 271.368H350.988ZM350.988 192.08V271.368H354.988V192.08H350.988ZM348.659 185.278C350.099 186.615 350.988 188.753 350.988 192.08H354.988C354.988 188.057 353.898 184.684 351.381 182.346L348.659 185.278ZM341.964 183.056C345.163 183.056 347.262 183.883 348.606 185.226L351.434 182.398C349.103 180.067 345.832 179.056 341.964 179.056V183.056ZM335.057 185.278C336.563 183.879 338.775 183.056 341.964 183.056V179.056C338.086 179.056 334.786 180.07 332.335 182.346L335.057 185.278ZM332.94 192.08C332.94 188.714 333.78 186.556 335.11 185.226L332.282 182.398C329.937 184.742 328.94 188.097 328.94 192.08H332.94ZM332.94 271.792V192.08H328.94V271.792H332.94ZM336.858 298.063C334.261 290.543 332.94 281.796 332.94 271.792H328.94C328.94 282.14 330.305 291.343 333.078 299.369L336.858 298.063ZM348.061 316.825C343.203 311.832 339.46 305.594 336.858 298.063L333.078 299.369C335.847 307.385 339.877 314.149 345.195 319.615L348.061 316.825ZM366.584 328.205C359.207 325.61 353.041 321.804 348.042 316.806L345.214 319.634C350.674 325.094 357.369 329.203 365.256 331.979L366.584 328.205ZM392.42 331.908C382.549 331.908 373.937 330.656 366.552 328.195L365.288 331.989C373.167 334.616 382.221 335.908 392.42 335.908V331.908ZM425.211 325.134C416.525 329.613 405.626 331.908 392.42 331.908V335.908C406.068 335.908 417.64 333.539 427.045 328.69L425.211 325.134ZM444.686 305.253C440.351 314.057 433.873 320.668 425.211 325.134L427.045 328.69C436.473 323.828 443.564 316.588 448.274 307.019L444.686 305.253ZM451.476 271.792C451.476 285.14 449.181 296.262 444.691 305.242L448.269 307.03C453.107 297.354 455.476 285.58 455.476 271.792H451.476ZM451.476 192.08V271.792H455.476V192.08H451.476ZM449.306 185.226C450.636 186.556 451.476 188.714 451.476 192.08H455.476C455.476 188.097 454.479 184.742 452.134 182.398L449.306 185.226ZM452.841 178.862L449.306 182.398L452.134 185.226L455.67 181.691L452.841 178.862ZM460.476 192.08C460.476 187.329 459.284 182.477 455.67 178.862L452.841 181.691C455.438 184.287 456.476 187.94 456.476 192.08H460.476ZM460.476 271.792V192.08H456.476V271.792H460.476ZM452.748 309.252C458.017 298.708 460.476 286.125 460.476 271.792H456.476C456.476 285.684 454.091 297.616 449.17 307.464L452.748 309.252ZM429.336 333.134C439.718 327.78 447.572 319.758 452.753 309.242L449.165 307.474C444.36 317.227 437.119 324.62 427.503 329.578L429.336 333.134ZM392.42 340.908C406.62 340.908 419.033 338.446 429.336 333.134L427.503 329.578C417.919 334.52 406.178 336.908 392.42 336.908V340.908ZM363.706 336.733C372.204 339.565 381.811 340.908 392.42 340.908V336.908C382.139 336.908 372.974 335.606 364.971 332.938L363.706 336.733ZM363.667 336.72L363.706 336.733L364.972 332.938L364.932 332.925L363.667 336.72Z" fill="black" mask="url(#path-3-outside-2_0_1)"/>
<path d="M464.716 325.303L464.717 325.31L464.72 325.328C465.2 329.174 467.062 332.421 469.978 334.888L470.624 334.125L469.978 334.888L470.067 334.964L470.084 334.979L470.103 334.993L470.195 335.064C473.296 337.449 476.998 338.428 480.849 338.428C484.132 338.428 487.25 337.6 490.058 335.893C492.883 334.26 495.336 331.89 497.487 329.077L496.693 328.469L497.487 329.077L497.524 329.028L497.532 329.019L497.539 329.009L532.175 281.363L567.038 329.088L567.055 329.112L567.073 329.134L567.166 329.246C569.395 331.954 571.786 334.248 574.377 335.842C577.142 337.544 580.206 338.428 583.457 338.428C587.373 338.428 591.174 337.486 594.324 335.064L593.754 334.323L594.324 335.064L594.416 334.993L594.434 334.979L594.452 334.964L594.541 334.888C597.497 332.387 599.321 329.054 599.61 325.121C600.06 320.885 598.581 317.033 596.096 313.769C596.095 313.768 596.094 313.766 596.093 313.764L552.259 254.635L593.573 199.055L593.573 199.055L593.58 199.046L593.581 199.044L593.587 199.036L593.588 199.035C596.02 195.734 597.747 191.804 597.279 187.514C596.999 183.577 595.257 180.137 592.103 177.663C589.018 175.099 585.276 174 581.337 174C577.978 174 574.765 174.798 571.892 176.55C569.195 178.14 566.866 180.641 564.813 183.483L564.812 183.484L564.812 183.485L564.811 183.486L532.323 228.496L499.493 183.483L499.493 183.483L499.493 183.483L499.493 183.483L499.493 183.483L499.493 183.483L499.493 183.483L499.493 183.483L499.493 183.483L499.493 183.483L499.493 183.483L499.493 183.483L499.493 183.483L499.493 183.482L499.493 183.482L499.493 183.482L499.493 183.482L499.493 183.482L499.493 183.482L499.493 183.482L499.493 183.482L499.493 183.482L499.493 183.482L499.493 183.482L499.493 183.482L499.493 183.482L499.493 183.482L499.493 183.482L499.493 183.482L499.492 183.482L499.492 183.482L499.492 183.482L499.492 183.482L499.492 183.482L499.492 183.482L499.492 183.482L499.492 183.482L499.492 183.482L499.492 183.482L499.492 183.482L499.492 183.481L499.492 183.481L499.492 183.481L499.492 183.481L499.492 183.481L499.492 183.481L499.492 183.481L499.492 183.481L499.492 183.481L499.492 183.481L499.492 183.481L499.492 183.481L499.492 183.481L499.492 183.481L499.492 183.481L499.492 183.481L499.492 183.481L499.492 183.481L499.492 183.481L499.492 183.481L499.492 183.481L499.492 183.481L499.492 183.481L499.492 183.481L499.492 183.481L499.491 183.481L499.491 183.48L499.491 183.48L499.491 183.48L499.491 183.48L499.491 183.48L499.491 183.48L499.491 183.48L499.491 183.48L499.491 183.48L499.491 183.48L499.491 183.48L499.491 183.48L499.491 183.48L499.491 183.48L499.491 183.48L499.491 183.48L499.491 183.48L499.491 183.48L499.491 183.48L499.491 183.48L499.491 183.48L499.491 183.48L499.491 183.48L499.491 183.48L499.491 183.48L499.491 183.48L499.491 183.479L499.491 183.479L499.491 183.479L499.491 183.479L499.491 183.479L499.491 183.479L499.491 183.479L499.491 183.479L499.491 183.479L499.491 183.479L499.49 183.479L499.49 183.479L499.49 183.479L499.49 183.479L499.49 183.479L499.49 183.479L499.49 183.479L499.49 183.479L499.49 183.479L499.49 183.479L499.49 183.479L499.49 183.479L499.49 183.479L499.49 183.479L499.49 183.479L499.49 183.479L499.49 183.479L499.49 183.478L499.49 183.478L499.49 183.478L499.49 183.478L499.49 183.478L499.49 183.478L499.49 183.478L499.49 183.478L499.49 183.478L499.49 183.478L499.49 183.478L499.49 183.478L499.49 183.478L499.49 183.478L499.49 183.478L499.49 183.478L499.49 183.478L499.49 183.478L499.49 183.478L499.489 183.478L499.489 183.478L499.489 183.478L499.489 183.478L499.489 183.478L499.489 183.478L499.489 183.478L499.489 183.477L499.489 183.477L499.489 183.477L499.489 183.477L499.489 183.477L499.489 183.477L499.489 183.477L499.489 183.477L499.489 183.477L499.489 183.477L499.489 183.477L499.489 183.477L499.489 183.477L499.489 183.477L499.489 183.477L499.489 183.477L499.489 183.477L499.489 183.477L499.489 183.477L499.489 183.477L499.489 183.477L499.489 183.477L499.489 183.477L499.489 183.477L499.489 183.477L499.489 183.477L499.489 183.476L499.489 183.476L499.489 183.476L499.488 183.476L499.488 183.476L499.488 183.476L499.488 183.476L499.488 183.476L499.488 183.476L499.488 183.476L499.488 183.476L499.488 183.476L499.488 183.476L499.488 183.476L499.488 183.476L499.488 183.476L499.488 183.476L499.488 183.476L499.488 183.476L499.488 183.476L499.488 183.476L499.488 183.476L499.488 183.476L499.488 183.476L499.488 183.476L499.488 183.476L499.488 183.476L499.488 183.475L499.488 183.475L499.488 183.475L499.488 183.475L499.488 183.475L499.488 183.475L499.488 183.475L499.488 183.475L499.488 183.475L499.488 183.475L499.488 183.475L499.488 183.475L499.488 183.475L499.487 183.475L499.487 183.475L499.487 183.475L499.487 183.475L499.487 183.475L499.487 183.475L499.487 183.475L499.487 183.475L499.487 183.475L499.487 183.475L499.487 183.475L499.487 183.475L499.487 183.475L499.487 183.474L499.487 183.474L499.487 183.474L499.487 183.474L499.487 183.474L499.487 183.474L499.487 183.474L499.487 183.474L499.487 183.474L499.487 183.474L499.487 183.474L499.487 183.474L499.487 183.474L499.487 183.474L499.487 183.474L499.487 183.474L499.487 183.474L499.487 183.474L499.487 183.474L499.487 183.474L499.487 183.474L499.487 183.474L499.487 183.474L499.486 183.474L499.486 183.474L499.486 183.474L499.486 183.473L499.486 183.473L499.486 183.473L499.486 183.473L499.486 183.473L499.486 183.473L499.486 183.473L499.486 183.473C497.423 180.619 495.033 178.136 492.21 176.55C489.479 174.798 486.399 174 483.181 174C479.299 174 475.655 175.146 472.628 177.663C469.515 180.103 467.715 183.471 467.258 187.355L468.251 187.472L467.258 187.355L467.241 187.5L467.238 187.529L467.236 187.558L467.228 187.704C466.983 191.858 468.5 195.67 470.897 198.989L470.897 198.989L470.917 199.017L470.917 199.017L470.925 199.028L512.247 254.618L468.217 313.76C468.216 313.762 468.215 313.763 468.214 313.765C465.694 317.072 464.208 320.983 464.714 325.285L465.707 325.168L464.714 325.285L464.716 325.303ZM486.501 329.864L486.487 329.872L486.473 329.88C484.801 330.909 482.935 331.428 480.849 331.428C478.203 331.428 476.106 330.772 474.481 329.53C472.836 328.131 471.915 326.452 471.666 324.463C471.422 322.381 472.08 320.233 473.8 317.984L473.807 317.973L520.527 255.218L520.972 254.621L520.528 254.024L476.572 194.891C476.571 194.889 476.569 194.887 476.568 194.885C474.835 192.483 474.098 190.245 474.214 188.144C474.472 186.01 475.401 184.36 477.007 183.125L477.025 183.11L477.043 183.095C478.679 181.711 480.703 181 483.181 181C485.268 181 487.049 181.519 488.563 182.528L488.602 182.554L488.643 182.576C490.297 183.467 492.029 185.104 493.819 187.581L493.821 187.585L531.54 239.302L532.352 240.416L533.159 239.298L570.488 187.581C572.287 185.091 573.956 183.449 575.481 182.56L575.491 182.554L575.501 182.548C577.164 181.525 579.098 181 581.337 181C583.971 181 586.061 181.719 587.687 183.095L587.705 183.11L587.724 183.125C589.321 184.354 590.178 185.989 590.303 188.115L590.305 188.147L590.309 188.18C590.548 190.09 589.849 192.308 587.954 194.881C587.953 194.882 587.953 194.882 587.952 194.883L543.984 254.033L543.541 254.629L543.983 255.226L590.498 317.972L590.502 317.978L590.507 317.983C592.228 320.234 592.885 322.383 592.64 324.467L592.637 324.494L592.635 324.522C592.512 326.486 591.669 328.142 590.037 329.53C588.42 330.766 586.257 331.428 583.457 331.428C581.526 331.428 579.728 330.916 578.045 329.88C576.339 328.83 574.518 327.159 572.588 324.819L532.971 270.586L532.161 269.477L531.354 270.587L491.92 324.834C490.141 327.159 488.33 328.818 486.501 329.864Z" stroke="black" />
</svg>
