<svg xmlns="http://www.w3.org/2000/svg"  viewBox="0 0 100 100" width="50px" height="50px"><circle cx="78" cy="14" r="1" fill="#f1bc19"/><circle cx="50" cy="50" r="38" fill="#f9dbd2"/><circle cx="84" cy="16" r="4" fill="#f1bc19"/><circle cx="14" cy="26" r="2" fill="#ee3e54"/><circle cx="78" cy="77" r="2" fill="#fbcd59"/><circle cx="17" cy="78" r="4" fill="#fbcd59"/><circle cx="24" cy="83" r="2" fill="#ee3e54"/><circle cx="74.483" cy="69.517" r="2.483" fill="#fff"/><circle cx="16" cy="48" r="1" fill="#fff"/><circle cx="86" cy="31" r="1" fill="#f1bc19"/><circle cx="80" cy="66" r="2" fill="#fff"/><g><polygon fill="#f1bc19" points="80,49 59,28 44,28 38,28 18,49 24,49 41.073,31.073 59,49"/><path fill="#472b29" d="M80,49.5H59c-0.133,0-0.26-0.053-0.354-0.146L41.082,31.789l-16.72,17.556 C24.268,49.444,24.137,49.5,24,49.5h-6c-0.2,0-0.381-0.119-0.46-0.303c-0.078-0.184-0.04-0.397,0.098-0.542l20-21 C37.732,27.556,37.863,27.5,38,27.5h21c0.133,0,0.26,0.053,0.354,0.146l21,21c0.143,0.143,0.186,0.358,0.108,0.545 C80.385,49.378,80.202,49.5,80,49.5z M59.207,48.5h19.586l-20-20H38.214l-19.047,20h4.619l16.925-17.772 c0.093-0.098,0.222-0.153,0.356-0.155c0.135,0.001,0.264,0.051,0.359,0.146L59.207,48.5z"/></g><g><path fill="#cbc9bc" d="M48.495,64.505C48.363,64.374,48.186,64.3,48,64.3H31.187c-1.372,0-2.487-1.116-2.487-2.488V49.152 l12.301-13.129L56.49,52.48c0.133,0.141,0.316,0.22,0.51,0.22c0.002,0,11.3-0.118,11.3-0.118v9.23 c0,1.372-1.115,2.488-2.487,2.488H60c-0.387,0-0.7,0.313-0.7,0.7v10.31L48.495,64.505z"/><path fill="#472b29" d="M41.002,37.045l14.978,15.915c0.265,0.281,0.634,0.44,1.019,0.44c0.005,0,0.01,0,0.015,0 L67.6,53.29v8.523c0,0.986-0.802,1.788-1.788,1.788H60c-0.773,0-1.4,0.626-1.4,1.4v8.62l-9.61-9.61 c-0.263-0.263-0.619-0.41-0.99-0.41H31.187c-0.986,0-1.787-0.802-1.787-1.788V49.428L41.002,37.045 M41,35L28,48.875v12.938 C28,63.573,29.427,65,31.187,65H48l12,12V65h5.812C67.573,65,69,63.573,69,61.813v-9.938L57,52L41,35L41,35z"/></g><g><path fill="#472b29" d="M32,55.458c-0.138,0-0.25-0.112-0.25-0.25v-5.292c0-0.138,0.112-0.25,0.25-0.25 s0.25,0.112,0.25,0.25v5.292C32.25,55.346,32.138,55.458,32,55.458z"/></g><g><path fill="#472b29" d="M32.917,61.25c-0.644,0-1.167-0.523-1.167-1.167v-2.875c0-0.138,0.112-0.25,0.25-0.25 s0.25,0.112,0.25,0.25v2.875c0,0.368,0.299,0.667,0.667,0.667c0.138,0,0.25,0.112,0.25,0.25S33.055,61.25,32.917,61.25z"/></g><g><path fill="#472b29" d="M42.208,61.25h-7c-0.138,0-0.25-0.112-0.25-0.25s0.112-0.25,0.25-0.25h7 c0.138,0,0.25,0.112,0.25,0.25S42.346,61.25,42.208,61.25z"/></g><g><path fill="#472b29" d="M47.083,61.25h-2.958c-0.138,0-0.25-0.112-0.25-0.25s0.112-0.25,0.25-0.25h2.958 c0.138,0,0.25,0.112,0.25,0.25S47.221,61.25,47.083,61.25z"/></g><g><path fill="#472b29" d="M70.5,43.75c-0.064,0-0.128-0.024-0.177-0.073l-4.792-4.792c-0.098-0.098-0.098-0.256,0-0.354 s0.256-0.098,0.354,0l4.792,4.792c0.098,0.098,0.098,0.256,0,0.354C70.628,43.726,70.564,43.75,70.5,43.75z"/></g><g><path fill="#472b29" d="M64.188,37.438c-0.064,0-0.128-0.024-0.177-0.073l-6.614-6.614H48.5c-0.138,0-0.25-0.112-0.25-0.25 s0.112-0.25,0.25-0.25h9c0.066,0,0.13,0.026,0.177,0.073l6.688,6.688c0.098,0.098,0.098,0.256,0,0.354 C64.315,37.413,64.252,37.438,64.188,37.438z"/></g></svg>